{
  "accessors": [
    {
      "bufferView": 2,
      "componentType": 5126,
      "count": 360,
      "max": [
        0.076996810734272003,
        2.1291558742523193,
        0.09387505054473877
      ],
      "min": [
        -0.076996810734272003,
        -0.5960228443145752,
        -0.40187481045722961
      ],
      "type": "VEC3"
    },
    {
      "bufferView": 2,
      "byteOffset": 4320,
      "componentType": 5126,
      "count": 360,
      "max": [
        1,
        1,
        1
      ],
      "min": [
        -1,
        -1,
        -1
      ],
      "type": "VEC3"
    },
    {
      "bufferView": 3,
      "componentType": 5126,
      "count": 360,
      "max": [
        1,
        1,
        1,
        1
      ],
      "min": [
        -1,
        -1,
        -1,
        1
      ],
      "type": "VEC4"
    },
    {
      "bufferView": 1,
      "componentType": 5126,
      "count": 360,
      "max": [
        0.99682921171188354,
        0.99747061729431152
      ],
      "min": [
        0.0026079146191477776,
        0.0024838049430400133
      ],
      "type": "VEC2"
    },
    {
      "bufferView": 1,
      "byteOffset": 2880,
      "componentType": 5126,
      "count": 360,
      "max": [
        0.99682921171188354,
        0.99747061729431152
      ],
      "min": [
        0.0026079146191477776,
        0.0024838049430400133
      ],
      "type": "VEC2"
    },
    {
      "bufferView": 0,
      "componentType": 5125,
      "count": 942,
      "max": [
        359
      ],
      "min": [
        0
      ],
      "type": "SCALAR"
    },
    {
      "bufferView": 2,
      "byteOffset": 8640,
      "componentType": 5126,
      "count": 900,
      "max": [
        0.048798851668834686,
        2.3342771530151367,
        0.12044908851385117
      ],
      "min": [
        -0.048798851668834686,
        0.79110187292098999,
        -0.45952731370925903
      ],
      "type": "VEC3"
    },
    {
      "bufferView": 2,
      "byteOffset": 19440,
      "componentType": 5126,
      "count": 900,
      "max": [
        1,
        1,
        1
      ],
      "min": [
        -1,
        -1,
        -1
      ],
      "type": "VEC3"
    },
    {
      "bufferView": 3,
      "byteOffset": 5760,
      "componentType": 5126,
      "count": 900,
      "max": [
        1,
        1,
        1,
        1
      ],
      "min": [
        -1,
        -1,
        -1,
        1
      ],
      "type": "VEC4"
    },
    {
      "bufferView": 1,
      "byteOffset": 5760,
      "componentType": 5126,
      "count": 900,
      "max": [
        0.99633121490478516,
        0.99402141571044922
      ],
      "min": [
        0.0029030116274952888,
        0.002902571577578783
      ],
      "type": "VEC2"
    },
    {
      "bufferView": 1,
      "byteOffset": 12960,
      "componentType": 5126,
      "count": 900,
      "max": [
        0.99633121490478516,
        0.99402141571044922
      ],
      "min": [
        0.0029030116274952888,
        0.002902571577578783
      ],
      "type": "VEC2"
    },
    {
      "bufferView": 0,
      "byteOffset": 3768,
      "componentType": 5125,
      "count": 2358,
      "max": [
        899
      ],
      "min": [
        0
      ],
      "type": "SCALAR"
    },
    {
      "bufferView": 2,
      "byteOffset": 30240,
      "componentType": 5126,
      "count": 1154,
      "max": [
        0.054520618170499802,
        1.1658749580383301,
        0.21295540034770966
      ],
      "min": [
        -0.054520618170499802,
        -2.2908296585083008,
        0.0068065598607063293
      ],
      "type": "VEC3"
    },
    {
      "bufferView": 2,
      "byteOffset": 44088,
      "componentType": 5126,
      "count": 1154,
      "max": [
        1,
        1,
        1
      ],
      "min": [
        -1,
        -1,
        -1
      ],
      "type": "VEC3"
    },
    {
      "bufferView": 3,
      "byteOffset": 20160,
      "componentType": 5126,
      "count": 1154,
      "max": [
        1,
        1,
        1,
        1
      ],
      "min": [
        -1,
        -1,
        -1,
        -1
      ],
      "type": "VEC4"
    },
    {
      "bufferView": 1,
      "byteOffset": 20160,
      "componentType": 5126,
      "count": 1154,
      "max": [
        0.99756926298141479,
        0.97636294364929199
      ],
      "min": [
        0.0024313353933393955,
        0.0024303407408297062
      ],
      "type": "VEC2"
    },
    {
      "bufferView": 1,
      "byteOffset": 29392,
      "componentType": 5126,
      "count": 1154,
      "max": [
        0.99756926298141479,
        0.97636294364929199
      ],
      "min": [
        0.0024313353933393955,
        0.0024303407408297062
      ],
      "type": "VEC2"
    },
    {
      "bufferView": 0,
      "byteOffset": 13200,
      "componentType": 5125,
      "count": 3192,
      "max": [
        1153
      ],
      "min": [
        0
      ],
      "type": "SCALAR"
    },
    {
      "bufferView": 2,
      "byteOffset": 57936,
      "componentType": 5126,
      "count": 687,
      "max": [
        0.042489390820264816,
        1.192680835723877,
        0.14941908419132233
      ],
      "min": [
        -0.18398712575435638,
        -0.60702282190322876,
        -0.21747139096260071
      ],
      "type": "VEC3"
    },
    {
      "bufferView": 2,
      "byteOffset": 66180,
      "componentType": 5126,
      "count": 687,
      "max": [
        1,
        1,
        1
      ],
      "min": [
        -1,
        -1,
        -1
      ],
      "type": "VEC3"
    },
    {
      "bufferView": 3,
      "byteOffset": 38624,
      "componentType": 5126,
      "count": 687,
      "max": [
        1,
        1,
        1,
        1
      ],
      "min": [
        -0.99999988079071045,
        -1,
        -1,
        1
      ],
      "type": "VEC4"
    },
    {
      "bufferView": 1,
      "byteOffset": 38624,
      "componentType": 5126,
      "count": 687,
      "max": [
        0.99722212553024292,
        0.92125725746154785
      ],
      "min": [
        0.0027814644854515791,
        0.0027786470018327236
      ],
      "type": "VEC2"
    },
    {
      "bufferView": 1,
      "byteOffset": 44120,
      "componentType": 5126,
      "count": 687,
      "max": [
        0.99722212553024292,
        0.92125725746154785
      ],
      "min": [
        0.0027814644854515791,
        0.0027786470018327236
      ],
      "type": "VEC2"
    },
    {
      "bufferView": 0,
      "byteOffset": 25968,
      "componentType": 5125,
      "count": 1680,
      "max": [
        686
      ],
      "min": [
        0
      ],
      "type": "SCALAR"
    },
    {
      "bufferView": 2,
      "byteOffset": 74424,
      "componentType": 5126,
      "count": 5012,
      "max": [
        0.13486179709434509,
        0.50905054807662964,
        0.16748665273189545
      ],
      "min": [
        -0.1348617821931839,
        -0.62920022010803223,
        -0.14667557179927826
      ],
      "type": "VEC3"
    },
    {
      "bufferView": 2,
      "byteOffset": 134568,
      "componentType": 5126,
      "count": 5012,
      "max": [
        1,
        1,
        1
      ],
      "min": [
        -1,
        -1,
        -1
      ],
      "type": "VEC3"
    },
    {
      "bufferView": 3,
      "byteOffset": 49616,
      "componentType": 5126,
      "count": 5012,
      "max": [
        1,
        1,
        1,
        1
      ],
      "min": [
        -1,
        -1,
        -1,
        -1
      ],
      "type": "VEC4"
    },
    {
      "bufferView": 1,
      "byteOffset": 49616,
      "componentType": 5126,
      "count": 5012,
      "max": [
        0.99724680185317993,
        0.99533581733703613
      ],
      "min": [
        0.0027206828817725182,
        0.0027203948702663183
      ],
      "type": "VEC2"
    },
    {
      "bufferView": 1,
      "byteOffset": 89712,
      "componentType": 5126,
      "count": 5012,
      "max": [
        0.99724680185317993,
        0.99533581733703613
      ],
      "min": [
        0.0027206828817725182,
        0.0027203948702663183
      ],
      "type": "VEC2"
    },
    {
      "bufferView": 0,
      "byteOffset": 32688,
      "componentType": 5125,
      "count": 12732,
      "max": [
        5011
      ],
      "min": [
        0
      ],
      "type": "SCALAR"
    },
    {
      "bufferView": 2,
      "byteOffset": 194712,
      "componentType": 5126,
      "count": 24,
      "max": [
        0.055471029132604599,
        0.72894924879074097,
        -0.083482950925827026
      ],
      "min": [
        -0.055471029132604599,
        0.32855349779129028,
        -0.33078131079673767
      ],
      "type": "VEC3"
    },
    {
      "bufferView": 2,
      "byteOffset": 195000,
      "componentType": 5126,
      "count": 24,
      "max": [
        1,
        1,
        1
      ],
      "min": [
        -1,
        -1,
        -0.99146777391433716
      ],
      "type": "VEC3"
    },
    {
      "bufferView": 3,
      "byteOffset": 129808,
      "componentType": 5126,
      "count": 24,
      "max": [
        1,
        0,
        0.13035275042057037,
        1
      ],
      "min": [
        -1,
        -1,
        -1.5450213197709672e-07,
        1
      ],
      "type": "VEC4"
    },
    {
      "bufferView": 1,
      "byteOffset": 129808,
      "componentType": 5126,
      "count": 24,
      "max": [
        0.99738603830337524,
        0.88178324699401855
      ],
      "min": [
        0.002620697021484375,
        0.00261699128895998
      ],
      "type": "VEC2"
    },
    {
      "bufferView": 1,
      "byteOffset": 130000,
      "componentType": 5126,
      "count": 24,
      "max": [
        0.99738603830337524,
        0.88178324699401855
      ],
      "min": [
        0.002620697021484375,
        0.00261699128895998
      ],
      "type": "VEC2"
    },
    {
      "bufferView": 0,
      "byteOffset": 83616,
      "componentType": 5125,
      "count": 36,
      "max": [
        23
      ],
      "min": [
        0
      ],
      "type": "SCALAR"
    }
  ],
  "asset": {
    "extras": {
      "author": "Rzyas (https://sketchfab.com/rzyas)",
      "license": "CC-BY-4.0 (http://creativecommons.org/licenses/by/4.0/)",
      "source": "https://sketchfab.com/3d-models/awm-lowpoly-awmales-e20a0025460f452382432808e65ff46c",
      "title": "AWM Lowpoly (AWMales)"
    },
    "generator": "Sketchfab-9.0.0",
    "version": "2.0"
  },
  "bufferViews": [
    {
      "buffer": 0,
      "byteLength": 83760,
      "byteOffset": 0,
      "name": "floatBufferViews",
      "target": 34963
    },
    {
      "buffer": 0,
      "byteLength": 130192,
      "byteOffset": 83760,
      "byteStride": 8,
      "name": "floatBufferViews",
      "target": 34962
    },
    {
      "buffer": 0,
      "byteLength": 195288,
      "byteOffset": 213952,
      "byteStride": 12,
      "name": "floatBufferViews",
      "target": 34962
    },
    {
      "buffer": 0,
      "byteLength": 130192,
      "byteOffset": 409240,
      "byteStride": 16,
      "name": "floatBufferViews",
      "target": 34962
    }
  ],
  "buffers": [
    {
      "byteLength": 539432,
      "uri": "scene.bin"
    }
  ],
  "images": [
    {
      "uri": "textures/WPN1_SR_AWMales_2_MAT_baseColor.png"
    },
    {
      "uri": "textures/WPN1_SR_AWMales_2_MAT_metallicRoughness.png"
    },
    {
      "uri": "textures/WPN1_SR_AWMales_2_MAT_normal.png"
    },
    {
      "uri": "textures/WPN1_SR_AWMales_4_MAT_baseColor.jpeg"
    },
    {
      "uri": "textures/WPN1_SR_AWMales_4_MAT_metallicRoughness.png"
    },
    {
      "uri": "textures/WPN1_SR_AWMales_4_MAT_normal.png"
    },
    {
      "uri": "textures/WPN1_SR_AWMales_1_MAT_baseColor.jpeg"
    },
    {
      "uri": "textures/WPN1_SR_AWMales_1_MAT_metallicRoughness.png"
    },
    {
      "uri": "textures/WPN1_SR_AWMales_1_MAT_normal.png"
    },
    {
      "uri": "textures/WPN1_SR_AWMales_3_MAT_baseColor.jpeg"
    },
    {
      "uri": "textures/WPN1_SR_AWMales_3_MAT_metallicRoughness.png"
    },
    {
      "uri": "textures/WPN1_SR_AWMales_3_MAT_normal.png"
    },
    {
      "uri": "textures/WPN1_SR_AWMales_scope_MAT_baseColor.jpeg"
    },
    {
      "uri": "textures/WPN1_SR_AWMales_scope_MAT_metallicRoughness.png"
    },
    {
      "uri": "textures/WPN1_SR_AWMales_scope_MAT_normal.png"
    },
    {
      "uri": "textures/WPN1_SR_AWMales_Ammo_MAT_baseColor.png"
    },
    {
      "uri": "textures/WPN1_SR_AWMales_Ammo_MAT_metallicRoughness.png"
    },
    {
      "uri": "textures/WPN1_SR_AWMales_Ammo_MAT_normal.png"
    }
  ],
  "materials": [
    {
      "doubleSided": true,
      "emissiveFactor": [
        0,
        0,
        0
      ],
      "name": "WPN1_SR_AWMales_2_MAT",
      "normalTexture": {
        "index": 2,
        "scale": 1,
        "texCoord": 0
      },
      "pbrMetallicRoughness": {
        "baseColorFactor": [
          1,
          1,
          1,
          1
        ],
        "baseColorTexture": {
          "index": 0,
          "texCoord": 0
        },
        "metallicFactor": 1,
        "metallicRoughnessTexture": {
          "index": 1,
          "texCoord": 0
        },
        "roughnessFactor": 1
      }
    },
    {
      "doubleSided": true,
      "emissiveFactor": [
        0,
        0,
        0
      ],
      "name": "WPN1_SR_AWMales_4_MAT",
      "normalTexture": {
        "index": 5,
        "scale": 1,
        "texCoord": 0
      },
      "pbrMetallicRoughness": {
        "baseColorFactor": [
          1,
          1,
          1,
          1
        ],
        "baseColorTexture": {
          "index": 3,
          "texCoord": 0
        },
        "metallicFactor": 1,
        "metallicRoughnessTexture": {
          "index": 4,
          "texCoord": 0
        },
        "roughnessFactor": 1
      }
    },
    {
      "doubleSided": true,
      "emissiveFactor": [
        0,
        0,
        0
      ],
      "name": "WPN1_SR_AWMales_1_MAT",
      "normalTexture": {
        "index": 8,
        "scale": 1,
        "texCoord": 0
      },
      "pbrMetallicRoughness": {
        "baseColorFactor": [
          1,
          1,
          1,
          1
        ],
        "baseColorTexture": {
          "index": 6,
          "texCoord": 0
        },
        "metallicFactor": 1,
        "metallicRoughnessTexture": {
          "index": 7,
          "texCoord": 0
        },
        "roughnessFactor": 1
      }
    },
    {
      "doubleSided": true,
      "emissiveFactor": [
        0,
        0,
        0
      ],
      "name": "WPN1_SR_AWMales_3_MAT",
      "normalTexture": {
        "index": 11,
        "scale": 1,
        "texCoord": 0
      },
      "pbrMetallicRoughness": {
        "baseColorFactor": [
          1,
          1,
          1,
          1
        ],
        "baseColorTexture": {
          "index": 9,
          "texCoord": 0
        },
        "metallicFactor": 1,
        "metallicRoughnessTexture": {
          "index": 10,
          "texCoord": 0
        },
        "roughnessFactor": 1
      }
    },
    {
      "doubleSided": true,
      "emissiveFactor": [
        0,
        0,
        0
      ],
      "name": "WPN1_SR_AWMales_scope_MAT",
      "normalTexture": {
        "index": 14,
        "scale": 1,
        "texCoord": 0
      },
      "pbrMetallicRoughness": {
        "baseColorFactor": [
          1,
          1,
          1,
          1
        ],
        "baseColorTexture": {
          "index": 12,
          "texCoord": 0
        },
        "metallicFactor": 1,
        "metallicRoughnessTexture": {
          "index": 13,
          "texCoord": 0
        },
        "roughnessFactor": 1
      }
    },
    {
      "doubleSided": true,
      "emissiveFactor": [
        0,
        0,
        0
      ],
      "name": "WPN1_SR_AWMales_Ammo_MAT",
      "normalTexture": {
        "index": 17,
        "scale": 1,
        "texCoord": 0
      },
      "pbrMetallicRoughness": {
        "baseColorFactor": [
          1,
          1,
          1,
          1
        ],
        "baseColorTexture": {
          "index": 15,
          "texCoord": 0
        },
        "metallicFactor": 1,
        "metallicRoughnessTexture": {
          "index": 16,
          "texCoord": 0
        },
        "roughnessFactor": 1
      }
    }
  ],
  "meshes": [
    {
      "name": "2_WPN1_SR_AWMales_2_MAT_0",
      "primitives": [
        {
          "attributes": {
            "NORMAL": 1,
            "POSITION": 0,
            "TANGENT": 2,
            "TEXCOORD_0": 3,
            "TEXCOORD_1": 4
          },
          "indices": 5,
          "material": 0,
          "mode": 4
        }
      ]
    },
    {
      "name": "4_WPN1_SR_AWMales_4_MAT_0",
      "primitives": [
        {
          "attributes": {
            "NORMAL": 7,
            "POSITION": 6,
            "TANGENT": 8,
            "TEXCOORD_0": 9,
            "TEXCOORD_1": 10
          },
          "indices": 11,
          "material": 1,
          "mode": 4
        }
      ]
    },
    {
      "name": "1_WPN1_SR_AWMales_1_MAT_0",
      "primitives": [
        {
          "attributes": {
            "NORMAL": 13,
            "POSITION": 12,
            "TANGENT": 14,
            "TEXCOORD_0": 15,
            "TEXCOORD_1": 16
          },
          "indices": 17,
          "material": 2,
          "mode": 4
        }
      ]
    },
    {
      "name": "3_WPN1_SR_AWMales_3_MAT_0",
      "primitives": [
        {
          "attributes": {
            "NORMAL": 19,
            "POSITION": 18,
            "TANGENT": 20,
            "TEXCOORD_0": 21,
            "TEXCOORD_1": 22
          },
          "indices": 23,
          "material": 3,
          "mode": 4
        }
      ]
    },
    {
      "name": "Scope_WPN1_SR_AWMales_scope_MAT_0",
      "primitives": [
        {
          "attributes": {
            "NORMAL": 25,
            "POSITION": 24,
            "TANGENT": 26,
            "TEXCOORD_0": 27,
            "TEXCOORD_1": 28
          },
          "indices": 29,
          "material": 4,
          "mode": 4
        }
      ]
    },
    {
      "name": "Ammo_WPN1_SR_AWMales_Ammo_MAT_0",
      "primitives": [
        {
          "attributes": {
            "NORMAL": 31,
            "POSITION": 30,
            "TANGENT": 32,
            "TEXCOORD_0": 33,
            "TEXCOORD_1": 34
          },
          "indices": 35,
          "material": 5,
          "mode": 4
        }
      ]
    }
  ],
  "nodes": [
    {
      "children": [
        1
      ],
      "name": "RootNode (gltf orientation matrix)",
      "rotation": [
        -0.70710678118654746,
        -0,
        -0,
        0.70710678118654757
      ]
    },
    {
      "children": [
        2
      ],
      "name": "RootNode (model correction matrix)"
    },
    {
      "children": [
        3
      ],
      "matrix": [
        1,
        0,
        0,
        0,
        0,
        0,
        1,
        0,
        0,
        -1,
        0,
        0,
        0,
        0,
        0,
        1
      ],
      "name": "8b2b1e939a26420aac242c82a7a86951.fbx"
    },
    {
      "children": [
        4,
        6,
        8,
        10,
        12,
        14
      ],
      "name": "RootNode"
    },
    {
      "children": [
        5
      ],
      "matrix": [
        100,
        0,
        0,
        0,
        0,
        -1.6292067939183141e-05,
        -99.999999999998678,
        0,
        0,
        99.999999999998678,
        -1.6292067939183141e-05,
        0,
        0,
        0,
        0,
        1
      ],
      "name": "2"
    },
    {
      "mesh": 0,
      "name": "2_WPN1_SR_AWMales_2_MAT_0"
    },
    {
      "children": [
        7
      ],
      "matrix": [
        100,
        0,
        0,
        0,
        0,
        -1.6292067939183141e-05,
        -99.999999999998678,
        0,
        0,
        99.999999999998678,
        -1.6292067939183141e-05,
        0,
        0,
        0,
        0,
        1
      ],
      "name": "4"
    },
    {
      "mesh": 1,
      "name": "4_WPN1_SR_AWMales_4_MAT_0"
    },
    {
      "children": [
        9
      ],
      "matrix": [
        100,
        0,
        0,
        0,
        0,
        -1.6292067939183141e-05,
        -99.999999999998678,
        0,
        0,
        99.999999999998678,
        -1.6292067939183141e-05,
        0,
        0,
        0,
        0,
        1
      ],
      "name": "1"
    },
    {
      "mesh": 2,
      "name": "1_WPN1_SR_AWMales_1_MAT_0"
    },
    {
      "children": [
        11
      ],
      "matrix": [
        100,
        0,
        0,
        0,
        0,
        -1.6292067939183141e-05,
        -99.999999999998678,
        0,
        0,
        99.999999999998678,
        -1.6292067939183141e-05,
        0,
        0,
        0,
        0,
        1
      ],
      "name": "3"
    },
    {
      "mesh": 3,
      "name": "3_WPN1_SR_AWMales_3_MAT_0"
    },
    {
      "children": [
        13
      ],
      "matrix": [
        100,
        0,
        0,
        0,
        -0,
        -1.6292067939183141e-05,
        -99.999999999998678,
        0,
        0,
        99.999999999998678,
        -1.6292067939183141e-05,
        0,
        -2.396463730854493e-15,
        31.270879745483398,
        -66.6171875,
        1
      ],
      "name": "Scope"
    },
    {
      "mesh": 4,
      "name": "Scope_WPN1_SR_AWMales_scope_MAT_0"
    },
    {
      "children": [
        15
      ],
      "matrix": [
        100,
        0,
        0,
        0,
        0,
        -1.6292067939183141e-05,
        -99.999999999998678,
        0,
        0,
        99.999999999998678,
        -1.6292067939183141e-05,
        0,
        0,
        0,
        0,
        1
      ],
      "name": "Ammo"
    },
    {
      "mesh": 5,
      "name": "Ammo_WPN1_SR_AWMales_Ammo_MAT_0"
    }
  ],
  "samplers": [
    {
      "magFilter": 9729,
      "minFilter": 9987,
      "wrapS": 10497,
      "wrapT": 10497
    }
  ],
  "scene": 0,
  "scenes": [
    {
      "name": "OSG_Scene",
      "nodes": [
        0
      ]
    }
  ],
  "textures": [
    {
      "sampler": 0,
      "source": 0
    },
    {
      "sampler": 0,
      "source": 1
    },
    {
      "sampler": 0,
      "source": 2
    },
    {
      "sampler": 0,
      "source": 3
    },
    {
      "sampler": 0,
      "source": 4
    },
    {
      "sampler": 0,
      "source": 5
    },
    {
      "sampler": 0,
      "source": 6
    },
    {
      "sampler": 0,
      "source": 7
    },
    {
      "sampler": 0,
      "source": 8
    },
    {
      "sampler": 0,
      "source": 9
    },
    {
      "sampler": 0,
      "source": 10
    },
    {
      "sampler": 0,
      "source": 11
    },
    {
      "sampler": 0,
      "source": 12
    },
    {
      "sampler": 0,
      "source": 13
    },
    {
      "sampler": 0,
      "source": 14
    },
    {
      "sampler": 0,
      "source": 15
    },
    {
      "sampler": 0,
      "source": 16
    },
    {
      "sampler": 0,
      "source": 17
    }
  ]
}

